<?xml version="1.0" encoding="UTF-8"?>
<svg width="780px" height="1024px" viewBox="0 0 780 1024" version="1.1" xmlns="http://www.w3.org/2000/svg" xmlns:xlink="http://www.w3.org/1999/xlink">
    <!-- Generator: Sketch 51.2 (57519) - http://www.bohemiancoding.com/sketch -->
    <title>logo</title>
    <desc>Created with Sketch.</desc>
    <defs></defs>
    <g id="Page-1" stroke="none" stroke-width="1" fill="none" fill-rule="evenodd">
        <g id="Dailymotion_Icon" transform="translate(-244.000000, 0.000000)" fill="#FFFFFF">
            <path d="M769.197618,771.224135 C804.032497,735.97281 821.447416,692.123233 821.447416,639.677083 C821.447416,607.004058 813.707452,576.912693 798.225844,549.401308 C782.744235,521.888243 761.027655,500.178452 733.074425,484.271937 C705.122874,468.365421 673.942978,460.412163 639.541457,460.412163 C588.794971,460.412163 546.005129,477.391991 511.17193,511.355005 C476.338731,545.31634 458.920452,588.090925 458.920452,639.677083 C458.920452,693.844899 475.908733,738.122793 509.880256,772.514125 C543.855139,806.905456 586.643302,824.100282 638.249783,824.100282 C690.714581,824.100282 734.364419,806.47378 769.197618,771.224135 Z M820.159102,923.405986 L817.579114,923.405986 C777.154261,990.468662 705.766191,1024 603.416584,1024 C532.88851,1024 470.318759,1007.23517 415.700612,973.702153 C361.085824,940.170815 318.940979,894.387933 289.267756,836.351826 C259.594533,778.317399 244.757922,713.188028 244.757922,640.967072 C244.757922,570.466103 259.809532,506.196725 289.912753,448.160619 C320.017654,390.124512 362.160819,344.34163 416.347288,310.811972 C470.532078,277.278954 531.598516,260.514125 599.544922,260.514125 C641.689767,260.514125 679.747951,267.177393 713.722834,280.503929 C747.696037,293.830464 779.734249,315.540255 809.83747,345.63162 L809.83747,46.4278773 L1024,0 L1024,1015.11452 L820.159102,1015.11452 L820.159102,923.405986 Z" id="logo"></path>
        </g>
    </g>
</svg>